<svg width="35" height="35" viewBox="0 0 35 35" fill="none" xmlns="http://www.w3.org/2000/svg">
<path d="M8.33165 13.2221L2.8303 18.7231C1.9376 19.6039 1.22795 20.6526 0.742214 21.8087C0.256477 22.9648 0.00424957 24.2057 4.95911e-05 25.4597C-0.00415039 26.7137 0.239758 27.9562 0.717739 29.1155C1.19572 30.2749 1.89832 31.3283 2.7851 32.215C3.67188 33.1018 4.72531 33.8043 5.88474 34.2823C7.04418 34.7602 8.2867 35.0041 9.54079 34.9999C10.7949 34.9957 12.0357 34.7435 13.1919 34.2578C14.3481 33.7721 15.3969 33.0625 16.2777 32.1698L18.1103 30.3373C18.3581 30.0982 18.5558 29.8121 18.6919 29.4958C18.8279 29.1795 18.8996 28.8393 18.9028 28.4949C18.9059 28.1506 18.8405 27.8091 18.7102 27.4904C18.58 27.1716 18.3876 26.882 18.1442 26.6384C17.9008 26.3948 17.6113 26.2021 17.2927 26.0715C16.974 25.941 16.6326 25.8752 16.2882 25.8781C15.9439 25.8809 15.6036 25.9523 15.2871 26.088C14.9706 26.2238 14.6844 26.4212 14.445 26.6688L12.6089 28.503C11.797 29.3076 10.6995 29.7578 9.55643 29.7551C8.41338 29.7525 7.31793 29.2971 6.50978 28.4888C5.70164 27.6805 5.2466 26.5849 5.24426 25.442C5.24192 24.299 5.69246 23.2016 6.49729 22.3899L11.9986 16.8889C12.5933 16.294 13.3485 15.8856 14.1719 15.7136C14.9952 15.5416 15.8508 15.6136 16.6338 15.9207C16.9127 16.0314 17.1744 16.1443 17.4187 16.2596L18.2209 16.6347C19.2929 17.1188 20.1175 17.3263 21.167 16.2786C22.6746 14.7711 22.2839 13.3794 20.446 12.1122C18.6153 10.8525 16.4012 10.2738 14.1881 10.4765C11.9751 10.6793 9.90299 11.6507 8.33165 13.2221ZM18.7223 2.83189L16.8897 4.66443C16.4171 5.1533 16.1554 5.80823 16.1609 6.48817C16.1665 7.16811 16.439 7.81865 16.9196 8.29968C17.4002 8.78071 18.0505 9.05375 18.7304 9.05997C19.4104 9.0662 20.0656 8.80512 20.555 8.33297L22.3893 6.50043C22.7879 6.08752 23.2648 5.75813 23.792 5.53147C24.3193 5.30481 24.8864 5.18542 25.4603 5.18027C26.0342 5.17512 26.6034 5.28432 27.1347 5.50148C27.6659 5.71865 28.1486 6.03943 28.5545 6.44512C28.9605 6.85082 29.2815 7.33329 29.499 7.86439C29.7165 8.39549 29.826 8.96458 29.8212 9.53845C29.8164 10.1123 29.6973 10.6795 29.4709 11.2069C29.2445 11.7342 28.9154 12.2112 28.5027 12.6101L23.0014 18.1111C22.4067 18.706 21.6515 19.1144 20.8281 19.2864C20.0048 19.4584 19.1492 19.3864 18.3662 19.0793C18.0872 18.9686 17.8256 18.8557 17.5813 18.7404L16.779 18.3653C15.7071 17.8812 14.8807 17.6737 13.833 18.7214C12.3254 20.2289 12.7161 21.6206 14.554 22.8878C16.3847 24.1475 18.5988 24.7262 20.8119 24.5235C23.0249 24.3207 25.097 23.3493 26.6683 21.7779L32.1697 16.2769C33.0624 15.3961 33.772 14.3474 34.2578 13.1913C34.7435 12.0352 34.9957 10.7943 34.9999 9.54032C35.0041 8.2863 34.7602 7.04383 34.2823 5.88445C33.8043 4.72508 33.1017 3.6717 32.2149 2.78497C31.3281 1.89823 30.2747 1.19566 29.1153 0.717706C27.9558 0.239751 26.7133 -0.00414778 25.4592 5.33629e-05C24.2051 0.00425451 22.9643 0.256473 21.8081 0.742185C20.6518 1.2279 19.6031 1.93924 18.7223 2.83189Z" fill="#D23D2D"/>
</svg>
