<svg width="503" height="174" viewBox="0 0 503 174" fill="none" xmlns="http://www.w3.org/2000/svg">
<path d="M146.933 91V24.8281H167.085L172.649 65.1704L178.176 24.8281H198.517V91H186.41V43.3262L178.815 91H166.935L158.889 43.3262V91H146.933ZM202.577 91L208.969 24.8281H231.415L237.693 91H225.173L224.233 80.3223H216.263L215.436 91H202.577ZM217.203 69.7573H223.218L220.323 36.1074H219.722L217.203 69.7573ZM241.754 91V24.8281H262.057C265.44 24.8281 267.997 25.6051 269.727 27.1592C271.456 28.6882 272.609 30.8438 273.186 33.626C273.787 36.3831 274.088 39.6291 274.088 43.3638C274.088 46.9731 273.624 49.8556 272.697 52.0112C271.794 54.1668 270.077 55.6582 267.546 56.4854C269.626 56.9115 271.08 57.9517 271.907 59.606C272.759 61.2352 273.186 63.3532 273.186 65.96V91H260.139V65.0952C260.139 63.1652 259.738 61.9746 258.936 61.5234C258.159 61.0472 256.893 60.8091 255.139 60.8091V91H241.754ZM255.214 49.3418H258.41C260.239 49.3418 261.154 47.3491 261.154 43.3638C261.154 40.7821 260.954 39.0902 260.553 38.2881C260.152 37.486 259.4 37.085 258.297 37.085H255.214V49.3418ZM277.848 91V24.8281H290.631V91H277.848ZM311.686 91.6016C306.397 91.6016 302.349 90.0099 299.542 86.8267C296.759 83.6183 295.368 78.9938 295.368 72.9531V41.5215C295.368 35.8568 296.747 31.5581 299.504 28.6255C302.286 25.6929 306.347 24.2266 311.686 24.2266C317.024 24.2266 321.072 25.6929 323.83 28.6255C326.612 31.5581 328.003 35.8568 328.003 41.5215V72.9531C328.003 78.9938 326.599 83.6183 323.792 86.8267C321.01 90.0099 316.974 91.6016 311.686 91.6016ZM311.798 79.4199C313.804 79.4199 314.806 77.4774 314.806 73.5923V41.2959C314.806 38.0374 313.829 36.4082 311.874 36.4082C309.668 36.4082 308.565 38.075 308.565 41.4087V73.6675C308.565 75.7228 308.816 77.2017 309.317 78.104C309.818 78.9813 310.645 79.4199 311.798 79.4199ZM334.583 44.2285L337.064 35.3555H332.289V24.1514H346.351V35.0171L342.516 44.2285H334.583ZM366.954 91.6016C360.913 91.6016 356.552 90.0977 353.87 87.0898C351.213 84.082 349.885 79.2946 349.885 72.7275V66.2607H362.969V74.5322C362.969 76.0612 363.194 77.2643 363.646 78.1416C364.122 78.9938 364.936 79.4199 366.089 79.4199C367.292 79.4199 368.12 79.069 368.571 78.3672C369.047 77.6654 369.285 76.5124 369.285 74.9082C369.285 72.8779 369.085 71.186 368.684 69.8325C368.283 68.4539 367.581 67.1506 366.578 65.9224C365.601 64.6691 364.235 63.2153 362.48 61.561L356.54 55.9214C352.103 51.7355 349.885 46.9481 349.885 41.5591C349.885 35.9194 351.188 31.6208 353.795 28.6631C356.427 25.7054 360.224 24.2266 365.187 24.2266C371.253 24.2266 375.551 25.8433 378.083 29.0767C380.64 32.3101 381.918 37.2228 381.918 43.8149H368.458V39.2656C368.458 38.3633 368.195 37.6615 367.668 37.1602C367.167 36.6589 366.478 36.4082 365.601 36.4082C364.548 36.4082 363.771 36.709 363.27 37.3105C362.793 37.887 362.555 38.639 362.555 39.5664C362.555 40.4938 362.806 41.4964 363.307 42.5742C363.808 43.652 364.799 44.8927 366.277 46.2964L373.91 53.6279C375.439 55.0817 376.842 56.6232 378.121 58.2524C379.399 59.8566 380.427 61.7365 381.204 63.8921C381.981 66.0226 382.369 68.6294 382.369 71.7124C382.369 77.9285 381.216 82.8037 378.91 86.3379C376.629 89.847 372.644 91.6016 366.954 91.6016Z" fill="black"/>
<path d="M131 91H396L364.5 127.5L396 164H131L154.5 127.5L131 91Z" fill="#D23D2D"/>
<path d="M200.25 160.812V106.125H211.625V111.125C212.312 109.396 213.26 108.052 214.469 107.094C215.698 106.115 217.448 105.625 219.719 105.625C222.781 105.625 224.938 106.74 226.188 108.969C227.458 111.198 228.094 114.115 228.094 117.719V140.781C228.094 143.177 227.75 145.344 227.062 147.281C226.396 149.198 225.333 150.719 223.875 151.844C222.438 152.948 220.552 153.5 218.219 153.5C215.177 153.5 212.979 151.667 211.625 148V160.812H200.25ZM214.281 144.781C215.448 144.781 216.146 144.198 216.375 143.031C216.625 141.865 216.75 140.427 216.75 138.719V120.406C216.75 118.677 216.625 117.24 216.375 116.094C216.146 114.927 215.448 114.344 214.281 114.344C213.073 114.344 212.323 114.938 212.031 116.125C211.76 117.292 211.625 118.719 211.625 120.406V138.719C211.625 140.406 211.76 141.844 212.031 143.031C212.323 144.198 213.073 144.781 214.281 144.781ZM232.312 103.25V93.9375H243.5V103.25H232.312ZM232.312 153V106.125H243.5V153H232.312ZM246.562 153V146.156L258.25 115H247.125V106.125H269.844V113.75L258.812 144.625H269.938V153H246.562ZM271.25 153V146.156L282.938 115H271.812V106.125H294.531V113.75L283.5 144.625H294.625V153H271.25ZM305.844 153.5C303.24 153.5 301.25 152.896 299.875 151.688C298.521 150.479 297.594 148.823 297.094 146.719C296.594 144.615 296.344 142.229 296.344 139.562C296.344 136.708 296.625 134.375 297.188 132.562C297.75 130.729 298.708 129.229 300.062 128.062C301.438 126.896 303.323 125.906 305.719 125.094L312.656 122.719V117.906C312.656 115.385 311.833 114.125 310.188 114.125C308.688 114.125 307.938 115.146 307.938 117.188V120H297.062C297.042 119.833 297.031 119.625 297.031 119.375C297.031 119.104 297.031 118.802 297.031 118.469C297.031 113.802 298.125 110.5 300.312 108.562C302.521 106.604 306.01 105.625 310.781 105.625C313.281 105.625 315.521 106.073 317.5 106.969C319.479 107.844 321.042 109.146 322.188 110.875C323.354 112.604 323.938 114.74 323.938 117.281V153H312.812V147.438C312.271 149.396 311.375 150.896 310.125 151.938C308.875 152.979 307.448 153.5 305.844 153.5ZM310.25 144.812C311.167 144.812 311.792 144.427 312.125 143.656C312.458 142.885 312.625 142.052 312.625 141.156V128.094C311.083 128.719 309.885 129.51 309.031 130.469C308.177 131.406 307.75 132.792 307.75 134.625V140.656C307.75 143.427 308.583 144.812 310.25 144.812Z" fill="white"/>
<path d="M17.4529 92.4708C71.2632 145.462 103.381 156.888 112.713 155.978L115.064 154.881L115.786 151.881C116.333 139.043 107.137 65.9526 102.47 31.0123C106.841 21.4522 101.56 15.1925 98.3732 13.2577C89.1544 6.08753 59.4495 18.3792 33.8418 31.0123C13.3556 41.1188 2.77113 60.9449 0.0396462 69.5946C-0.7798 86.803 11.307 92.0155 17.4529 92.4708Z" fill="#FFCC8A"/>
<path d="M31.7698 61.8471C24.3948 63.486 17.9986 73.0006 15.7223 77.5531C15.7223 76.1873 13.9989 71.5709 6.84499 71.5709C4.38286 71.5709 1.13967e-06 78.0581 0.341437 74.9852C0.432517 74.1655 0 74.6438 0 70.5466C0 68.4979 1.06435 65.7779 2.04861 63.3764C3.53322 59.7541 6.38791 56.0347 8.19446 53.4754C11.2674 46.6466 23.0025 36.309 37.8994 28.5499C47.463 23.5687 63.7727 16.7467 76.1402 13.1854C84.525 10.7709 91.4117 10.8614 93.8949 11.1373C98.8116 11.6836 103.699 18.5985 104.496 20.5333C104.268 24.8581 103.403 33.3713 101.764 32.825C92.204 27.362 90.8382 33.5079 79.2294 35.5565C35.867 39.6537 40.9886 59.7985 31.7698 61.8471Z" fill="#F5B03E"/>
<path d="M0.341635 73.6193C0.341635 90.8276 12.5248 94.6096 18.1016 94.2682C32.1004 117.144 103.119 159.824 110.289 159.141C116.025 158.595 116.202 152.946 115.747 151.808C105.162 161.71 21.8574 88.4638 20.8331 85.3909C19.8087 82.318 14.6819 72.5951 11.2676 70.5465C3.61941 68.0881 0.227823 71.5707 0.341635 73.6193Z" fill="#FF8E00"/>
<path d="M30.6852 61.8058C20.0622 66.4534 16.1914 72.4816 15.8499 77.7169C14.8256 78.7412 19.6057 81.4727 19.6057 78.0583C19.6057 71.7964 29.2922 66.7713 35.5361 63.5505C36.1903 63.213 36.729 62.6988 37.1351 62.0849C46.4313 48.0299 69.194 40.8446 81.2177 39.9539C82.242 39.271 85.2466 37.359 89.0707 35.1739C92.8948 32.9887 100.268 34.2634 103.114 35.1739L102.387 31.4181C91.4608 26.7745 82.5834 31.9871 79.5105 35.1739L69.2674 36.1982C42.6354 40.9783 36.1481 59.4158 30.6852 61.8058Z" fill="#CB6C22"/>
<ellipse cx="88.7734" cy="58.5965" rx="12.2917" ry="9.90164" fill="#ED6D30"/>
<ellipse cx="99.6992" cy="124.152" rx="12.2917" ry="9.90164" fill="#ED6D30"/>
<ellipse cx="86.7248" cy="86.5943" rx="12.2917" ry="9.90164" fill="#ED6D30"/>
<path d="M52.4078 113.89C53.2559 112.904 53.8547 111.721 54.17 110.407C54.4853 109.094 54.5109 107.676 54.2454 106.234C53.9799 104.793 53.4285 103.356 52.6226 102.006C51.8167 100.657 50.7722 99.4199 49.5486 98.3671C48.325 97.3143 46.9464 96.4659 45.4914 95.8705C44.0364 95.275 42.5335 94.9441 41.0687 94.8966C39.6038 94.8491 38.2055 95.086 36.9537 95.5937C35.702 96.1015 34.6212 96.8701 33.7731 97.8558L43.0904 105.873L52.4078 113.89Z" fill="#ED6D30"/>
<ellipse cx="43.7038" cy="81.8138" rx="12.2917" ry="9.90164" fill="#ED6D30"/>
<ellipse cx="89.1148" cy="58.5962" rx="8.5359" ry="7.85303" fill="white"/>
<ellipse cx="88.7733" cy="58.9373" rx="6.14585" ry="5.46297" fill="black"/>
<circle cx="86.3835" cy="60.6449" r="2.39005" fill="white"/>
<path d="M65.2721 93.0723C72.536 93.2286 87.2479 90.7896 87.984 79.7838" stroke="black" stroke-width="2"/>
<ellipse cx="44.0452" cy="81.814" rx="8.5359" ry="7.85303" fill="white"/>
<ellipse cx="43.704" cy="82.1554" rx="6.14585" ry="5.46297" fill="black"/>
<circle cx="41.3141" cy="83.8625" r="2.39005" fill="white"/>
</svg>
