<svg width="380" height="174" viewBox="0 0 380 174" fill="none" xmlns="http://www.w3.org/2000/svg">
<path d="M118.159 91V24.8281H138.311L143.875 65.1704L149.402 24.8281H169.743V91H157.636V43.3262L150.042 91H138.161L130.115 43.3262V91H118.159ZM173.803 91L180.195 24.8281H202.641L208.919 91H196.399L195.459 80.3223H187.489L186.662 91H173.803ZM188.429 69.7573H194.444L191.549 36.1074H190.948L188.429 69.7573ZM212.98 91V24.8281H233.283C236.667 24.8281 239.223 25.6051 240.953 27.1592C242.682 28.6882 243.835 30.8438 244.412 33.626C245.013 36.3831 245.314 39.6291 245.314 43.3638C245.314 46.9731 244.85 49.8556 243.923 52.0112C243.021 54.1668 241.304 55.6582 238.772 56.4854C240.852 56.9115 242.306 57.9517 243.133 59.606C243.986 61.2352 244.412 63.3532 244.412 65.96V91H231.365V65.0952C231.365 63.1652 230.964 61.9746 230.162 61.5234C229.385 61.0472 228.119 60.8091 226.365 60.8091V91H212.98ZM226.44 49.3418H229.636C231.465 49.3418 232.38 47.3491 232.38 43.3638C232.38 40.7821 232.18 39.0902 231.779 38.2881C231.378 37.486 230.626 37.085 229.523 37.085H226.44V49.3418ZM249.074 91V24.8281H261.857V91H249.074ZM282.912 91.6016C277.623 91.6016 273.575 90.0099 270.768 86.8267C267.985 83.6183 266.594 78.9938 266.594 72.9531V41.5215C266.594 35.8568 267.973 31.5581 270.73 28.6255C273.512 25.6929 277.573 24.2266 282.912 24.2266C288.25 24.2266 292.299 25.6929 295.056 28.6255C297.838 31.5581 299.229 35.8568 299.229 41.5215V72.9531C299.229 78.9938 297.825 83.6183 295.018 86.8267C292.236 90.0099 288.2 91.6016 282.912 91.6016ZM283.024 79.4199C285.03 79.4199 286.032 77.4774 286.032 73.5923V41.2959C286.032 38.0374 285.055 36.4082 283.1 36.4082C280.894 36.4082 279.791 38.075 279.791 41.4087V73.6675C279.791 75.7228 280.042 77.2017 280.543 78.104C281.044 78.9813 281.871 79.4199 283.024 79.4199ZM305.809 44.2285L308.29 35.3555H303.515V24.1514H317.577V35.0171L313.742 44.2285H305.809ZM338.18 91.6016C332.139 91.6016 327.778 90.0977 325.096 87.0898C322.439 84.082 321.111 79.2946 321.111 72.7275V66.2607H334.195V74.5322C334.195 76.0612 334.42 77.2643 334.872 78.1416C335.348 78.9938 336.162 79.4199 337.315 79.4199C338.519 79.4199 339.346 79.069 339.797 78.3672C340.273 77.6654 340.511 76.5124 340.511 74.9082C340.511 72.8779 340.311 71.186 339.91 69.8325C339.509 68.4539 338.807 67.1506 337.804 65.9224C336.827 64.6691 335.461 63.2153 333.706 61.561L327.766 55.9214C323.329 51.7355 321.111 46.9481 321.111 41.5591C321.111 35.9194 322.414 31.6208 325.021 28.6631C327.653 25.7054 331.45 24.2266 336.413 24.2266C342.479 24.2266 346.778 25.8433 349.309 29.0767C351.866 32.3101 353.144 37.2228 353.144 43.8149H339.684V39.2656C339.684 38.3633 339.421 37.6615 338.895 37.1602C338.393 36.6589 337.704 36.4082 336.827 36.4082C335.774 36.4082 334.997 36.709 334.496 37.3105C334.019 37.887 333.781 38.639 333.781 39.5664C333.781 40.4938 334.032 41.4964 334.533 42.5742C335.035 43.652 336.025 44.8927 337.503 46.2964L345.136 53.6279C346.665 55.0817 348.068 56.6232 349.347 58.2524C350.625 59.8566 351.653 61.7365 352.43 63.8921C353.207 66.0226 353.595 68.6294 353.595 71.7124C353.595 77.9285 352.442 82.8037 350.136 86.3379C347.855 89.847 343.87 91.6016 338.18 91.6016Z" fill="black"/>
<path d="M115 91H355L326.472 127.5L355 164H115L136.283 127.5L115 91Z" fill="#D23D2D"/>
<path d="M174.25 160.812V106.125H185.625V111.125C186.312 109.396 187.26 108.052 188.469 107.094C189.698 106.115 191.448 105.625 193.719 105.625C196.781 105.625 198.938 106.74 200.188 108.969C201.458 111.198 202.094 114.115 202.094 117.719V140.781C202.094 143.177 201.75 145.344 201.062 147.281C200.396 149.198 199.333 150.719 197.875 151.844C196.438 152.948 194.552 153.5 192.219 153.5C189.177 153.5 186.979 151.667 185.625 148V160.812H174.25ZM188.281 144.781C189.448 144.781 190.146 144.198 190.375 143.031C190.625 141.865 190.75 140.427 190.75 138.719V120.406C190.75 118.677 190.625 117.24 190.375 116.094C190.146 114.927 189.448 114.344 188.281 114.344C187.073 114.344 186.323 114.938 186.031 116.125C185.76 117.292 185.625 118.719 185.625 120.406V138.719C185.625 140.406 185.76 141.844 186.031 143.031C186.323 144.198 187.073 144.781 188.281 144.781ZM206.312 103.25V93.9375H217.5V103.25H206.312ZM206.312 153V106.125H217.5V153H206.312ZM220.562 153V146.156L232.25 115H221.125V106.125H243.844V113.75L232.812 144.625H243.938V153H220.562ZM245.25 153V146.156L256.938 115H245.812V106.125H268.531V113.75L257.5 144.625H268.625V153H245.25ZM279.844 153.5C277.24 153.5 275.25 152.896 273.875 151.688C272.521 150.479 271.594 148.823 271.094 146.719C270.594 144.615 270.344 142.229 270.344 139.562C270.344 136.708 270.625 134.375 271.188 132.562C271.75 130.729 272.708 129.229 274.062 128.062C275.438 126.896 277.323 125.906 279.719 125.094L286.656 122.719V117.906C286.656 115.385 285.833 114.125 284.188 114.125C282.688 114.125 281.938 115.146 281.938 117.188V120H271.062C271.042 119.833 271.031 119.625 271.031 119.375C271.031 119.104 271.031 118.802 271.031 118.469C271.031 113.802 272.125 110.5 274.312 108.562C276.521 106.604 280.01 105.625 284.781 105.625C287.281 105.625 289.521 106.073 291.5 106.969C293.479 107.844 295.042 109.146 296.188 110.875C297.354 112.604 297.938 114.74 297.938 117.281V153H286.812V147.438C286.271 149.396 285.375 150.896 284.125 151.938C282.875 152.979 281.448 153.5 279.844 153.5ZM284.25 144.812C285.167 144.812 285.792 144.427 286.125 143.656C286.458 142.885 286.625 142.052 286.625 141.156V128.094C285.083 128.719 283.885 129.51 283.031 130.469C282.177 131.406 281.75 132.792 281.75 134.625V140.656C281.75 143.427 282.583 144.812 284.25 144.812Z" fill="white"/>
<path d="M16.325 99.3675C66.6579 150.99 96.7001 162.122 105.43 161.235L107.628 160.167L108.304 157.244C108.815 144.737 100.213 73.5339 95.8485 39.4956C99.9364 30.1823 94.9968 24.0842 92.016 22.1993C83.393 15.2142 55.6077 27.1886 31.6548 39.4956C12.4926 49.3412 2.59205 68.6555 0.0370842 77.0819C-0.729407 93.846 10.5763 98.924 16.325 99.3675Z" fill="#FFCC8A"/>
<path d="M29.7168 69.5345C22.8183 71.1311 16.8354 80.4001 14.7063 84.8351C14.7063 83.5046 13.0942 79.0072 6.40265 79.0072C4.09963 79.0072 1.06602e-06 85.3271 0.319372 82.3335C0.404567 81.5349 0 82.0008 0 78.0094C0 76.0136 0.995566 73.3639 1.91623 71.0243C3.30489 67.4955 5.9751 63.8721 7.66491 61.3789C10.5393 54.7264 21.516 44.6557 35.4502 37.0969C44.3958 32.2442 59.6515 25.5984 71.2198 22.129C79.0628 19.7768 85.5044 19.865 87.8271 20.1338C92.4261 20.666 96.9977 27.4023 97.7428 29.2872C97.5299 33.5004 96.7209 41.7938 95.1879 41.2616C86.2455 35.9397 84.968 41.9269 74.1094 43.9226C33.5492 47.914 38.3398 67.5387 29.7168 69.5345Z" fill="#F5B03E"/>
<path d="M0.318996 81.0032C0.318996 97.7674 11.7148 101.452 16.9312 101.119C30.0255 123.405 96.4547 164.983 103.161 164.317C108.527 163.785 108.692 158.282 108.266 157.174C98.366 166.82 20.4443 95.4645 19.4862 92.471C18.5281 89.4774 13.7326 80.0055 10.5389 78.0098C3.38495 75.6149 0.212538 79.0075 0.318996 81.0032Z" fill="#FF8E00"/>
<path d="M28.702 69.4941C18.7655 74.0217 15.1449 79.8942 14.8255 84.9944C13.8674 85.9922 18.3386 88.6532 18.3386 85.327C18.3386 79.247 27.339 74.3639 33.1813 71.225C33.8309 70.8759 34.3624 70.3507 34.7587 69.7288C43.469 56.0611 64.7325 49.0731 75.969 48.2062C76.9271 47.541 79.7375 45.6783 83.3145 43.5496C86.8915 41.4208 93.7885 42.6626 96.45 43.5496L95.77 39.8907C85.5501 35.3671 77.2465 40.4451 74.3721 43.5496L64.791 44.5474C39.88 49.2041 33.812 67.1657 28.702 69.4941Z" fill="#CB6C22"/>
<ellipse cx="83.0364" cy="66.3677" rx="11.4974" ry="9.64603" fill="#ED6D30"/>
<ellipse cx="93.2557" cy="130.231" rx="11.4974" ry="9.64603" fill="#ED6D30"/>
<ellipse cx="81.1199" cy="93.6426" rx="11.4974" ry="9.64603" fill="#ED6D30"/>
<path d="M49.0211 120.233C49.8144 119.273 50.3745 118.12 50.6694 116.841C50.9643 115.561 50.9883 114.18 50.7399 112.775C50.4916 111.371 49.9758 109.972 49.222 108.657C48.4682 107.342 47.4911 106.137 46.3466 105.111C45.2021 104.086 43.9126 103.259 42.5516 102.679C41.1906 102.099 39.7849 101.777 38.4147 101.73C37.0445 101.684 35.7366 101.915 34.5657 102.41C33.3948 102.904 32.3838 103.653 31.5906 104.613L40.3058 112.423L49.0211 120.233Z" fill="#ED6D30"/>
<ellipse cx="40.8797" cy="88.9854" rx="11.4974" ry="9.64603" fill="#ED6D30"/>
</svg>
