<svg width="170" height="217" viewBox="0 0 170 217" fill="none" xmlns="http://www.w3.org/2000/svg">
<path d="M25.5581 119.306C104.358 196.906 151.391 213.639 165.058 212.306L168.5 210.7L169.558 206.306C170.358 187.506 156.891 80.4724 150.058 29.3058C156.458 15.3059 148.725 6.13916 144.058 3.30578C130.558 -7.19422 87.058 10.8058 49.558 29.3058C19.558 44.1058 4.05805 73.1391 0.0580581 85.8058C-1.14194 111.006 16.5581 118.639 25.5581 119.306Z" fill="#FFCC8A"/>
<path d="M46.5238 74.4606C35.7238 76.8606 26.3572 90.794 23.0238 97.4606C23.0238 95.4606 20.5 88.7002 10.0238 88.7002C6.41828 88.7002 1.66893e-06 98.2002 0.500002 93.7002C0.63338 92.4998 0 93.2002 0 87.2002C0 84.2002 1.55863 80.217 3 76.7002C5.17406 71.3956 9.35448 65.9489 12 62.2011C16.5 52.2011 33.685 37.0627 55.5 25.7002C69.505 18.4056 93.389 8.4155 111.5 3.20031C123.779 -0.335458 133.864 -0.202951 137.5 0.201093C144.7 1.00109 151.857 11.1272 153.024 13.9606C152.691 20.2939 151.424 32.7606 149.024 31.9606C135.024 23.9606 133.024 32.9606 116.024 35.9606C52.5238 41.9606 60.0238 71.4606 46.5238 74.4606Z" fill="#F5B03E"/>
<path d="M0.499995 91.7002C0.499995 116.9 18.341 122.438 26.5077 121.938C47.0077 155.438 151.008 217.939 161.508 216.939C169.908 216.139 170.167 207.867 169.5 206.2C154 220.7 32.0077 113.439 30.5077 108.939C29.0077 104.439 21.5 90.2005 16.5 87.2004C5.29998 83.6004 0.333328 88.7002 0.499995 91.7002Z" fill="#FF8E00"/>
<path d="M44.9354 74.4C29.3791 81.2059 23.7107 90.0335 23.2107 97.7002C21.7107 99.2001 28.7107 103.2 28.7107 98.2002C28.7107 88.8739 43.3833 81.4211 52.5023 76.716C53.1565 76.3784 53.6967 75.8657 54.0949 75.2467C67.522 54.3757 101.204 43.7134 118.935 42.3999C120.435 41.3999 124.835 38.5999 130.435 35.4C136.035 32.2 146.833 34.0666 151 35.4L149.935 29.9C133.935 23.1 120.935 30.7333 116.435 35.4L101.435 36.9C62.4355 43.9 52.9354 70.9 44.9354 74.4Z" fill="#CB6C22"/>
<ellipse cx="130" cy="69.7002" rx="18" ry="14.5" fill="#ED6D30"/>
<ellipse cx="146" cy="165.7" rx="18" ry="14.5" fill="#ED6D30"/>
<ellipse cx="127" cy="110.7" rx="18" ry="14.5" fill="#ED6D30"/>
<path d="M76.7461 150.672C77.9881 149.228 78.8649 147.495 79.3267 145.572C79.7884 143.648 79.8259 141.572 79.4371 139.461C79.0483 137.35 78.2408 135.246 77.0606 133.27C75.8805 131.293 74.3508 129.482 72.559 127.94C70.7672 126.399 68.7483 125.156 66.6177 124.284C64.487 123.412 62.2862 122.928 60.141 122.858C57.9958 122.789 55.9482 123.135 54.1151 123.879C52.282 124.623 50.6993 125.748 49.4573 127.192L63.1017 138.932L76.7461 150.672Z" fill="#ED6D30"/>
<ellipse cx="64" cy="103.7" rx="18" ry="14.5" fill="#ED6D30"/>
<ellipse cx="130.5" cy="69.7002" rx="12.5" ry="11.5" fill="white"/>
<ellipse cx="130" cy="70.2002" rx="9" ry="8" fill="black"/>
<circle cx="126.5" cy="72.7002" r="3.5" fill="white"/>
<ellipse cx="64.5" cy="103.7" rx="12.5" ry="11.5" fill="white"/>
<ellipse cx="64" cy="104.2" rx="9" ry="8" fill="black"/>
<circle cx="60.5" cy="106.7" r="3.5" fill="white"/>
<path d="M132.082 98.5441L93.8534 123.464C101.625 129.358 111.538 141.718 129.876 128.008C140.769 119.864 136.558 103.139 132.082 98.5441Z" fill="black"/>
<path d="M105.674 123.442C102.179 124.701 97.8195 120.885 97.8195 120.885C109.814 112.904 117.039 108.422 129.033 100.441C130.504 100.924 130.315 106.468 129.834 106.979C129.353 107.49 110.042 121.869 105.674 123.442Z" fill="white"/>
</svg>
