<svg width="124" height="158" viewBox="0 0 124 158" fill="none" xmlns="http://www.w3.org/2000/svg">
    <path
        d="M18.601 86.9351C75.951 143.412 110.181 155.59 120.128 154.62L122.633 153.451L123.403 150.253C123.985 136.57 114.184 58.6725 109.211 21.4338C113.869 11.2448 108.241 4.57331 104.844 2.5112C95.0191 -5.13062 63.3601 7.96964 36.068 21.4338C14.2342 32.2051 2.95342 53.3353 0.0422542 62.554C-0.831096 80.8944 12.0508 86.4499 18.601 86.9351Z"
        fill="#FFCC8A" />
    <path
        d="M33.8597 54.2971C25.9995 56.0438 19.1825 66.1844 16.7566 71.0363C16.7566 69.5807 14.9197 64.6605 7.29527 64.6605C4.67118 64.6605 1.21463e-06 71.5745 0.363897 68.2995C0.460969 67.4258 0 67.9356 0 63.5688C0 61.3855 1.13436 58.4865 2.18337 55.927C3.76564 52.0664 6.80811 48.1023 8.7335 45.3747C12.0086 38.0968 24.5157 27.0791 40.3925 18.8096C50.5852 13.5007 67.9678 6.22996 81.1488 2.43439C90.0852 -0.138919 97.4249 -0.0424817 100.071 0.251578C105.312 0.833812 110.52 8.20354 111.37 10.2656C111.127 14.875 110.205 23.9481 108.458 23.3659C98.2693 17.5436 96.8137 24.0937 84.4412 26.2771C38.2264 30.6438 43.6849 52.1137 33.8597 54.2971Z"
        fill="#F5B03E" />
    <path
        d="M0.364034 66.8438C0.364034 85.1842 13.3486 89.2149 19.2922 88.851C34.212 113.232 109.902 158.719 117.544 157.991C123.658 157.409 123.846 151.389 123.361 150.176C112.08 160.729 23.2951 82.6648 22.2034 79.3898C21.1117 76.1147 15.6477 65.7523 12.0087 63.5689C3.85743 60.9488 0.242736 64.6604 0.364034 66.8438Z"
        fill="#FF8E00" />
    <path
        d="M32.7037 54.253C21.3819 59.2063 17.2565 65.631 16.8926 71.2107C15.8009 72.3023 20.8955 75.2135 20.8955 71.5746C20.8955 64.8786 31.2877 59.5096 37.9399 56.0783C38.5941 55.7409 39.1325 55.2272 39.5371 54.6123C49.4188 39.5919 73.7281 31.9141 86.5603 30.9636C87.652 30.2358 90.8543 28.198 94.9299 25.8691C99.0056 23.5402 106.864 24.8987 109.897 25.8691L109.122 21.8662C97.4772 16.9173 88.0159 22.4727 84.7408 25.8691L73.824 26.9608C45.4401 32.0553 38.526 51.7057 32.7037 54.253Z"
        fill="#CB6C22" />
    <ellipse cx="94.613" cy="50.8325" rx="13.1003" ry="10.553" fill="#ED6D30" />
    <ellipse cx="106.257" cy="120.701" rx="13.1003" ry="10.553" fill="#ED6D30" />
    <ellipse cx="92.4296" cy="80.6721" rx="13.1003" ry="10.553" fill="#ED6D30" />
    <path
        d="M55.8553 109.763C56.7592 108.713 57.3974 107.451 57.7334 106.052C58.0694 104.652 58.0967 103.14 57.8138 101.604C57.5308 100.068 56.9431 98.5368 56.0842 97.0981C55.2253 95.6595 54.112 94.3415 52.808 93.2194C51.5039 92.0974 50.0346 91.1932 48.4839 90.5585C46.9332 89.9239 45.3315 89.5712 43.7702 89.5206C42.209 89.47 40.7187 89.7225 39.3846 90.2636C38.0505 90.8047 36.8986 91.6239 35.9947 92.6744L45.925 101.219L55.8553 109.763Z"
        fill="#ED6D30" />
    <ellipse cx="46.5788" cy="75.5774" rx="13.1003" ry="10.553" fill="#ED6D30" />
    <ellipse cx="94.977" cy="50.8325" rx="9.0974" ry="8.36961" fill="white" />
    <ellipse cx="94.6129" cy="51.1961" rx="6.55013" ry="5.82234" fill="black" />
    <circle cx="92.0658" cy="53.0158" r="2.54727" fill="white" />
    <path d="M69.5656 87.5764C77.3074 87.743 92.987 85.1436 93.7716 73.4137" stroke="black"
        stroke-width="2" />
    <ellipse cx="46.9426" cy="75.5774" rx="9.0974" ry="8.36961" fill="white" />
    <ellipse cx="46.5789" cy="75.9412" rx="6.55013" ry="5.82234" fill="black" />
    <circle cx="44.0316" cy="77.7607" r="2.54727" fill="white" />
</svg>