<svg width="35" height="35" viewBox="0 0 35 35" fill="none" xmlns="http://www.w3.org/2000/svg">
    <path
        d="M10.325 0.416626H24.675C30.1417 0.416626 34.5833 4.85829 34.5833 10.325V24.675C34.5833 27.3028 33.5394 29.823 31.6812 31.6812C29.8231 33.5394 27.3028 34.5833 24.675 34.5833H10.325C4.85832 34.5833 0.416656 30.1416 0.416656 24.675V10.325C0.416656 7.69711 1.46057 5.17688 3.31874 3.31871C5.17691 1.46054 7.69714 0.416626 10.325 0.416626ZM9.98332 3.83329C8.35224 3.83329 6.78797 4.48124 5.63462 5.63459C4.48127 6.78793 3.83332 8.35221 3.83332 9.98329V25.0166C3.83332 28.4162 6.58374 31.1666 9.98332 31.1666H25.0167C26.6477 31.1666 28.212 30.5187 29.3654 29.3653C30.5187 28.212 31.1667 26.6477 31.1667 25.0166V9.98329C31.1667 6.58371 28.4162 3.83329 25.0167 3.83329H9.98332ZM26.4687 6.39579C27.0351 6.39579 27.5782 6.62077 27.9787 7.02124C28.3792 7.42171 28.6042 7.96486 28.6042 8.53121C28.6042 9.09756 28.3792 9.64071 27.9787 10.0412C27.5782 10.4416 27.0351 10.6666 26.4687 10.6666C25.9024 10.6666 25.3592 10.4416 24.9588 10.0412C24.5583 9.64071 24.3333 9.09756 24.3333 8.53121C24.3333 7.96486 24.5583 7.42171 24.9588 7.02124C25.3592 6.62077 25.9024 6.39579 26.4687 6.39579ZM17.5 8.95829C19.7654 8.95829 21.938 9.85822 23.5399 11.4601C25.1417 13.062 26.0417 15.2346 26.0417 17.5C26.0417 19.7654 25.1417 21.938 23.5399 23.5398C21.938 25.1417 19.7654 26.0416 17.5 26.0416C15.2346 26.0416 13.062 25.1417 11.4601 23.5398C9.85825 21.938 8.95832 19.7654 8.95832 17.5C8.95832 15.2346 9.85825 13.062 11.4601 11.4601C13.062 9.85822 15.2346 8.95829 17.5 8.95829ZM17.5 12.375C16.1408 12.375 14.8372 12.9149 13.8761 13.876C12.9149 14.8372 12.375 16.1407 12.375 17.5C12.375 18.8592 12.9149 20.1628 13.8761 21.1239C14.8372 22.085 16.1408 22.625 17.5 22.625C18.8592 22.625 20.1628 22.085 21.1239 21.1239C22.085 20.1628 22.625 18.8592 22.625 17.5C22.625 16.1407 22.085 14.8372 21.1239 13.876C20.1628 12.9149 18.8592 12.375 17.5 12.375Z"
        fill="#282828" />
</svg>