<svg width="28" height="32" viewBox="0 0 28 32" fill="none" xmlns="http://www.w3.org/2000/svg">
<path d="M22.05 5.185C20.854 3.81917 20.1948 2.06545 20.195 0.25H14.7875V21.95C14.7467 23.1246 14.2512 24.2374 13.4055 25.0536C12.5599 25.8699 11.4303 26.3257 10.255 26.325C7.77 26.325 5.705 24.295 5.705 21.775C5.705 18.765 8.61 16.5075 11.6025 17.435V11.905C5.565 11.1 0.279999 15.79 0.279999 21.775C0.279999 27.6025 5.11 31.75 10.2375 31.75C15.7325 31.75 20.195 27.2875 20.195 21.775V10.7675C22.3877 12.3422 25.0204 13.1871 27.72 13.1825V7.775C27.72 7.775 24.43 7.9325 22.05 5.185Z" fill="#282828"/>
</svg>
